# xmcd
#
# Track frame offsets:
#	150
#	15183
#	30997
#	43189
#	61007
#	75289
#	90442
#	106846
#	123656
#	142144
#	163110
#	182323
#	202794
#	220607
#
# Disc length: 3309 seconds
#
# Revision: 0
# Processed by: cddbd v1.5.2PL0 Copyright (c) Steve Scherf et al.
# Submitted via: dBpowerAMP V4.0
#
DISCID=9f0ceb0e
DTITLE=Jill Johnson - Music Row
DYEAR=2007
DGENRE=Country
TTITLE0=Rhythm Guitar
TTITLE1=Jolene
TTITLE2=Why`d You Come In Here Looking Like That
TTITLE3=Angel of the Morning
TTITLE4=Papa Come Quick
TTITLE5=Mama He`s Crazy
TTITLE6=Tumblin` Dice
TTITLE7=You`re No Good
TTITLE8=Why Not Me
TTITLE9=Life in the Fast Lane
TTITLE10=You Don`t Have to Say You Love Me
TTITLE11=Need Your Love So Bad
TTITLE12=To Know Him is to Love Him
TTITLE13=Angel From Montgomery
EXTD=
EXTT0=
EXTT1=
EXTT2=
EXTT3=
EXTT4=
EXTT5=
EXTT6=
EXTT7=
EXTT8=
EXTT9=
EXTT10=
EXTT11=
EXTT12=
EXTT13=
PLAYORDER=
